<svg width="256" height="256" viewBox="0 0 66 34" xmlns="http://www.w3.org/2000/svg" xmlns:xlink="http://www.w3.org/1999/xlink" overflow="hidden"><g transform="translate(-607 -343)"><path d="M661.105 357.777C661.855 357.777 662.464 358.398 662.464 359.163L662.464 368.325C662.464 369.089 661.855 369.71 661.105 369.71 660.346 369.71 659.737 369.089 659.737 368.325L659.737 359.163C659.737 358.398 660.346 357.777 661.105 357.777ZM632.736 357.777C633.486 357.777 634.095 358.398 634.095 359.163L634.095 368.325C634.095 369.089 633.486 369.71 632.736 369.71 631.977 369.71 631.367 369.089 631.367 368.325L631.367 359.163C631.367 358.398 631.977 357.777 632.736 357.777ZM661.105 352.786C661.855 352.786 662.464 353.407 662.464 354.171L662.464 354.639C662.464 355.404 661.855 356.025 661.105 356.025 660.346 356.025 659.737 355.404 659.737 354.639L659.737 354.171C659.737 353.407 660.346 352.786 661.105 352.786ZM632.736 352.786C633.486 352.786 634.095 353.407 634.095 354.171L634.095 354.639C634.095 355.404 633.486 356.025 632.736 356.025 631.977 356.025 631.367 355.404 631.367 354.639L631.367 354.171C631.367 353.407 631.977 352.786 632.736 352.786ZM649.479 351.671 655.657 351.671C656.407 351.671 657.016 352.292 657.016 353.056 657.016 353.82 656.407 354.442 655.657 354.442L650.839 354.442 650.839 358.98 653.932 358.98C654.682 358.98 655.291 359.601 655.291 360.365 655.291 361.13 654.682 361.751 653.932 361.751L650.839 361.751 650.839 368.324C650.839 369.089 650.229 369.71 649.479 369.71 648.729 369.71 648.12 369.089 648.12 368.324L648.12 353.056C648.12 352.292 648.729 351.671 649.479 351.671ZM617.49 351.671C618.24 351.671 618.849 352.292 618.849 353.056L618.849 363.499 621.24 359.63C621.24 359.62 621.249 359.611 621.249 359.611 621.268 359.582 621.287 359.563 621.305 359.534 621.315 359.525 621.324 359.505 621.334 359.496 621.352 359.477 621.371 359.448 621.38 359.429 621.399 359.419 621.418 359.4 621.427 359.381 621.446 359.372 621.455 359.353 621.474 359.343 621.493 359.324 621.512 359.305 621.53 359.286 621.549 359.276 621.559 359.267 621.577 359.257 621.596 359.238 621.624 359.219 621.643 359.209 621.652 359.2 621.662 359.2 621.671 359.19 621.671 359.19 621.68 359.181 621.69 359.181 621.709 359.161 621.737 359.152 621.765 359.133 621.774 359.133 621.793 359.123 621.812 359.114 621.83 359.104 621.859 359.095 621.877 359.085 621.896 359.076 621.915 359.066 621.943 359.056 621.962 359.047 621.98 359.047 621.999 359.037 622.018 359.028 622.046 359.028 622.065 359.018 622.083 359.018 622.102 359.009 622.121 359.009 622.149 358.999 622.177 358.999 622.196 358.989 622.215 358.989 622.234 358.989 622.252 358.989 622.28 358.98 622.299 358.98 622.327 358.98 622.346 358.98 622.374 358.98 622.393 358.98 622.412 358.98 622.43 358.98 622.458 358.98 622.477 358.98 622.505 358.98 622.533 358.989 622.543 358.989 622.561 358.989 622.58 358.989 622.608 358.999 622.636 358.999 622.665 359.009 622.674 359.009 622.693 359.018 622.711 359.018 622.74 359.028 622.758 359.028 622.786 359.037 622.805 359.047 622.824 359.047 622.843 359.056 622.861 359.066 622.88 359.076 622.908 359.085 622.927 359.095 622.946 359.104 622.965 359.114 622.983 359.123 623.002 359.133 623.021 359.133 623.049 359.152 623.068 359.161 623.096 359.181 623.096 359.181 623.105 359.19 623.115 359.19 623.124 359.2 623.124 359.2 623.133 359.209 623.161 359.219 623.18 359.238 623.208 359.257 623.218 359.267 623.236 359.276 623.246 359.286 623.265 359.305 623.283 359.324 623.302 359.343 623.321 359.353 623.34 359.372 623.349 359.381 623.368 359.4 623.386 359.419 623.396 359.429 623.415 359.448 623.433 359.477 623.443 359.496 623.461 359.505 623.471 359.525 623.48 359.534 623.499 359.563 623.518 359.582 623.527 359.611 623.536 359.611 623.536 359.62 623.546 359.63L625.927 363.499 625.927 353.056C625.927 352.292 626.536 351.671 627.295 351.671 628.045 351.671 628.655 352.292 628.655 353.056L628.655 368.324C628.655 368.946 628.252 369.49 627.67 369.653 627.548 369.691 627.417 369.71 627.295 369.71 626.836 369.71 626.395 369.471 626.142 369.06L622.393 362.974 618.643 369.06C618.39 369.471 617.95 369.71 617.49 369.71 617.368 369.71 617.237 369.691 617.115 369.653 616.534 369.49 616.131 368.946 616.131 368.324L616.131 353.056C616.131 352.292 616.74 351.671 617.49 351.671ZM640.305 345.78C640.97 346.774 641.364 347.987 641.364 349.276L641.364 370.714C641.364 372.653 642.901 374.22 644.795 374.22L665.831 374.22C667.735 374.22 669.272 372.653 669.272 370.714L669.272 349.276C669.272 347.347 667.735 345.78 665.831 345.78ZM614.159 345.78C612.265 345.78 610.728 347.347 610.728 349.276L610.728 370.714C610.728 372.653 612.265 374.22 614.159 374.22L639.686 374.22C639.02 373.217 638.636 372.013 638.636 370.714L638.636 349.276C638.636 347.347 637.099 345.78 635.195 345.78ZM614.159 343 665.831 343C669.234 343 672 345.818 672 349.276L672 370.714C672 374.182 669.234 377 665.831 377L614.159 377C610.766 377 608 374.182 608 370.714L608 349.276C608 345.818 610.766 343 614.159 343Z" fill="#404040" fill-rule="evenodd"/></g></svg>