<svg width="21" height="18" xmlns="http://www.w3.org/2000/svg" xmlns:xlink="http://www.w3.org/1999/xlink" overflow="hidden"><g transform="translate(-445 -563)"><path d="M1.3125 11.8828 1.3125 14.7919 4.13063 16.5 4.13063 13.29 1.3125 11.5826 1.3125 11.8828Z" stroke="#843C0C" stroke-width="0.500001" fill="none" transform="matrix(1.16667 0 0 1 445 563)"/><path d="M13.8694 16.5 16.6875 14.7919 16.6875 11.5809 13.8694 13.2881 13.8694 16.5Z" stroke="#843C0C" stroke-width="0.500001" fill="none" transform="matrix(1.16667 0 0 1 445 563)"/><path d="M6.78056 5.51081C6.8814 5.46229 6.99191 5.43722 7.10381 5.4375 7.51802 5.43739 7.85391 5.77307 7.85402 6.18729 7.85411 6.47627 7.68816 6.73958 7.42744 6.86419L6.71869 7.20281 8.81812 8.475 8.81812 5.26519 6 3.558 6 5.883Z" stroke="#843C0C" stroke-width="0.500001" fill="none" transform="matrix(1.16667 0 0 1 445 563)"/><path d="M9.18188 5.26331 9.18188 8.475 11.2819 7.20263 10.5733 6.864C10.1997 6.68516 10.0418 6.23732 10.2206 5.86371 10.3451 5.60355 10.6078 5.43786 10.8962 5.4375 11.0082 5.43733 11.1187 5.46253 11.2196 5.51119L12 5.88375 12 3.55612Z" stroke="#843C0C" stroke-width="0.500001" fill="none" transform="matrix(1.16667 0 0 1 445 563)"/><path d="M10.3592 4.12519 10.7091 3.91256 12 3.13069 9 1.3125 7.70906 2.09438 7.35919 2.307 6 3.13069 9 4.94887 10.3592 4.12519Z" stroke="#843C0C" stroke-width="0.500001" fill="none" transform="matrix(1.16667 0 0 1 445 563)"/><path d="M6.02156 11.9374 7.3125 11.1562 5.0625 9.79181 5.0625 10.6356C5.0625 11.0498 4.72671 11.3856 4.3125 11.3856 3.89829 11.3856 3.5625 11.0498 3.5625 10.6356L3.5625 9.79181 3.02156 10.1194 2.67169 10.3312 1.3125 11.1562 4.3125 12.975 5.67169 12.15Z" stroke="#843C0C" stroke-width="0.500001" fill="none" transform="matrix(1.16667 0 0 1 445 563)"/><path d="M15.3966 11.9374 16.6875 11.1562 14.4375 9.79181 14.4375 10.6356C14.4375 11.0498 14.1017 11.3856 13.6875 11.3856 13.2733 11.3856 12.9375 11.0498 12.9375 10.6356L12.9375 9.79181 12.3966 10.1192 12.0467 10.3312 10.6875 11.1562 13.6875 12.975 15.0467 12.15Z" stroke="#843C0C" stroke-width="0.500001" fill="none" transform="matrix(1.16667 0 0 1 445 563)"/><path d="M10.6875 11.8828 10.6875 14.0151 11.2327 13.6804C11.5858 13.4637 12.0477 13.5743 12.2644 13.9273 12.4811 14.2804 12.3705 14.7422 12.0174 14.9589L11.4937 15.2812 13.5056 16.5 13.5056 13.29 10.6875 11.5826Z" stroke="#843C0C" stroke-width="0.500001" fill="none" transform="matrix(1.16667 0 0 1 445 563)"/><path d="M5.96737 14.8744C5.6214 14.6466 5.52557 14.1815 5.75332 13.8355 5.97864 13.4933 6.43697 13.3952 6.78263 13.6153L7.3125 13.9584 7.3125 11.5809 4.49437 13.2881 4.49437 16.5 6.55181 15.2529Z" stroke="#843C0C" stroke-width="0.500001" fill="none" transform="matrix(1.16667 0 0 1 445 563)"/><path d="M8.98837 16.3125C8.91606 16.3125 8.84527 16.2916 8.78456 16.2523L6.17119 14.5596C5.99554 14.4498 5.94208 14.2185 6.05181 14.0429 6.16153 13.8672 6.39287 13.8137 6.56852 13.9235 6.57199 13.9256 6.57542 13.9279 6.57881 13.9301L8.99381 15.4943 11.4289 14.0001C11.6054 13.8917 11.8364 13.9471 11.9447 14.1236 12.053 14.3002 11.9977 14.5311 11.8211 14.6394L9.18431 16.2572C9.12534 16.2933 9.05754 16.3125 8.98837 16.3125Z" stroke="#843C0C" stroke-width="0.500001" fill="none" transform="matrix(1.16667 0 0 1 445 563)"/><path d="M4.6875 10.6346 4.6875 7.75744 7.26562 6.52594C7.45254 6.43663 7.53165 6.2127 7.44234 6.02578 7.35304 5.83886 7.12911 5.75976 6.94219 5.84906L4.15106 7.18275C4.02066 7.24494 3.93759 7.37653 3.9375 7.521L3.9375 10.6346C3.9375 10.8417 4.10539 11.0096 4.3125 11.0096L4.3125 11.0096C4.51961 11.0096 4.6875 10.8417 4.6875 10.6346Z" stroke="#843C0C" stroke-width="0.500001" fill="none" transform="matrix(1.16667 0 0 1 445 563)"/><path d="M14.0625 10.6346 14.0625 7.521C14.0622 7.37683 13.9792 7.24564 13.8491 7.1835L11.0578 5.85C10.8709 5.76069 10.647 5.8398 10.5577 6.02672 10.4683 6.21364 10.5475 6.43757 10.7344 6.52688L13.3125 7.75744 13.3125 10.6346C13.3125 10.8417 13.4804 11.0096 13.6875 11.0096 13.8946 11.0096 14.0625 10.8417 14.0625 10.6346Z" stroke="#843C0C" stroke-width="0.500001" fill="none" transform="matrix(1.16667 0 0 1 445 563)"/></g></svg>